<svg xmlns="http://www.w3.org/2000/svg" version="1.1" xmlns:xlink="http://www.w3.org/1999/xlink" xmlns:svgjs="http://svgjs.dev/svgjs" width="1000" height="707" viewBox="0 0 1000 707"><g transform="matrix(1,0,0,1,-0.6060606060606233,0.0003759606196922505)"><svg viewBox="0 0 396 280" data-background-color="#ffffff" preserveAspectRatio="xMidYMid meet" height="707" width="1000" xmlns="http://www.w3.org/2000/svg" xmlns:xlink="http://www.w3.org/1999/xlink"><g id="tight-bounds" transform="matrix(1,0,0,1,0.2400000000000091,0.00014881462874427598)"><svg viewBox="0 0 395.52 280" height="280" width="395.52"><g><svg viewBox="0 0 395.52 280" height="280" width="395.52"><g><svg viewBox="0 0 395.52 280" height="280" width="395.52"><g><svg viewBox="0 0 395.52 280" height="280" width="395.52" id="textblock"><g><svg viewBox="0 0 395.52 280" height="280" width="395.52"><g transform="matrix(1,0,0,1,131.76336708925555,74.00336708925556)"><svg viewBox="0 0 131.99326582148888 131.99326582148888" height="131.99326582148888" width="131.99326582148888"><g><circle r="66" cx="65.99663291074444" cy="65.99663291074444" fill="#00ebff" data-fill-palette-color="accent"></circle></g></svg></g><path d="M145.079 277.6C144.205 277.503 143.577 277.421 143.196 277.352V277.352L141.765 277.193 140.365 277.038 138.686 276.852C138.468 276.828 138.253 276.764 138.044 276.661V276.661C137.775 276.544 137.531 276.473 137.313 276.449V276.449L136.941 276.448C136.678 276.338 136.559 276.174 136.583 275.956V275.956L135.152 262.635C134.819 258.858 134.538 255.404 134.308 252.275V252.275C134.18 252.154 134.094 251.786 134.048 251.17V251.17C134.057 250.843 134.1 250.335 134.176 249.646V249.646C134.215 249.295 134.311 249.007 134.463 248.783 134.608 248.564 134.806 248.469 135.058 248.497V248.497L135.624 248.56 136.568 248.664C136.753 248.745 137.094 248.813 137.591 248.868V248.868L139.434 249.112 139.762 249.148 141.52 249.343 141.764 249.41C141.788 249.44 141.813 249.456 141.839 249.459 141.866 249.462 141.879 249.463 141.879 249.463V249.463L141.91 249.547C141.943 249.551 141.981 249.541 142.024 249.519 142.066 249.497 142.114 249.489 142.167 249.495V249.495C142.338 249.46 142.451 249.446 142.504 249.452V249.452L142.633 249.466 142.996 249.547C143.291 249.606 143.876 249.684 144.75 249.781V249.781C145.022 249.865 145.334 249.926 145.685 249.965V249.965C145.797 250.225 145.895 250.665 145.981 251.285 146.067 251.904 146.148 252.594 146.225 253.353V253.353C146.239 253.77 146.283 254.646 146.356 255.982V255.982C146.39 256.401 146.428 256.932 146.471 257.573V257.573L146.565 258.911C146.562 258.937 146.57 258.985 146.589 259.054 146.614 259.131 146.621 259.222 146.609 259.328V259.328L146.637 260.166C146.666 260.39 146.681 260.737 146.683 261.207V261.207C146.727 261.352 146.751 261.529 146.754 261.737 146.758 261.946 146.766 262.117 146.778 262.253V262.253C146.789 262.395 146.801 262.53 146.813 262.659 146.833 262.782 146.836 262.913 146.82 263.052V263.052L146.859 263.428 146.88 263.601C146.871 263.681 146.89 263.75 146.937 263.809V263.809L146.91 264.057 147.017 263.818 147.039 263.619 147.107 263.456C147.116 263.376 147.156 263.257 147.227 263.097V263.097C147.249 262.905 147.317 262.648 147.433 262.325V262.325C147.504 262.172 147.566 262.008 147.619 261.833 147.665 261.657 147.711 261.488 147.755 261.325V261.325L148.028 260.32C148.105 260.161 148.167 260 148.212 259.837 148.256 259.681 148.281 259.574 148.288 259.514V259.514L148.373 259.111C149.625 255.067 150.475 252.503 150.923 251.42V251.42C150.968 251.257 151.035 251.107 151.124 250.969 151.207 250.824 151.336 250.718 151.511 250.65V250.65C151.544 250.6 151.637 250.57 151.793 250.561 151.941 250.55 152.06 250.537 152.149 250.52V250.52C152.735 250.497 153.15 250.5 153.395 250.527V250.527L154.091 250.604 155.283 250.736 156.708 250.944C156.95 250.997 157.236 251.043 157.567 251.079V251.079L157.687 251.092C157.723 251.07 157.748 251.049 157.764 251.031 157.779 251.019 157.786 251.013 157.786 251.013V251.013C157.892 251.025 157.955 251.062 157.975 251.124V251.124C158.034 251.131 158.07 251.142 158.082 251.156 158.094 251.171 158.099 251.178 158.099 251.178V251.178C158.587 251.259 159.158 251.336 159.814 251.408V251.408C160.089 251.466 160.375 251.511 160.673 251.544V251.544C160.918 251.571 161.051 251.612 161.072 251.668V251.668C161.098 251.671 161.143 251.663 161.205 251.643 161.261 251.622 161.316 251.615 161.369 251.621V251.621C161.428 251.574 161.566 251.562 161.785 251.586V251.586L162.033 251.614 162.53 251.669C162.967 251.717 163.219 251.799 163.287 251.913V251.913C163.415 252.759 163.48 253.805 163.483 255.052V255.052L163.502 255.969C163.548 257.55 163.638 258.887 163.771 259.981V259.981L163.796 260.487C163.812 261.072 163.812 261.43 163.798 261.563V261.563C163.793 261.844 163.814 262.292 163.86 262.907V262.907C163.843 263.542 163.864 263.987 163.923 264.241V264.241C163.89 264.539 163.879 264.883 163.89 265.273V265.273C163.901 265.415 163.916 265.521 163.935 265.59 163.954 265.659 163.962 265.707 163.959 265.734V265.734C163.944 265.873 163.943 266 163.957 266.115V266.115L163.971 266.358C164.045 266.232 164.097 266.158 164.126 266.134V266.134L164.168 265.757 164.257 265.314 164.529 264.308 164.883 263.02C164.949 262.666 165.067 262.233 165.238 261.722V261.722L165.475 260.673C165.517 260.536 165.549 260.429 165.571 260.351 165.593 260.273 165.606 260.218 165.609 260.185V260.185C165.859 259.441 166.032 258.881 166.127 258.502V258.502L166.392 257.657C166.999 255.68 167.468 254.32 167.798 253.579V253.579C167.929 253.125 168.108 252.755 168.333 252.472V252.472C168.499 252.49 168.679 252.497 168.874 252.492 169.069 252.487 169.263 252.495 169.455 252.516V252.516C169.673 252.54 169.921 252.541 170.199 252.518V252.518L170.278 252.527C170.364 252.536 170.404 252.567 170.398 252.62V252.62C170.398 252.62 170.397 252.634 170.394 252.66 170.391 252.686 170.403 252.701 170.429 252.704V252.704C170.535 252.716 170.619 252.712 170.682 252.692 170.738 252.671 170.779 252.662 170.806 252.665V252.665L170.854 252.59 173.069 252.836 173.357 252.867C173.662 252.901 173.925 252.917 174.147 252.915V252.915L175.17 253.028C175.686 253.085 176.044 253.094 176.243 253.056V253.056L177.186 253.161 177.802 253.229C178.021 253.253 178.179 253.398 178.277 253.663 178.369 253.922 178.397 254.213 178.361 254.537V254.537C178.189 254.88 178.01 255.373 177.825 256.017V256.017C177.765 256.318 177.713 256.671 177.668 257.075V257.075C176.297 261.22 174.96 264.91 173.657 268.144V268.144L169.483 279.598C169.232 279.624 169.087 279.692 169.048 279.801V279.801L169.026 280 168.624 279.915C168.405 279.891 168.238 279.886 168.123 279.9V279.9L167.631 279.886 165.575 279.658C164.509 279.54 163.719 279.439 163.205 279.355V279.355L160.861 279.096 158.854 278.874 157.662 278.742C157.394 278.685 157.011 278.63 156.515 278.575V278.575L156.103 278.569C155.84 278.46 155.721 278.296 155.745 278.077V278.077L154.492 264.233 150.282 277.472C150.101 277.895 149.639 278.065 148.898 277.983V277.983L146.971 277.769C146.61 277.756 145.98 277.7 145.079 277.6ZM253.879 249.001C251.664 250.722 250.037 251.968 249 252.74V252.74C248.021 253.5 247.274 254.063 246.757 254.431V254.431L244.128 256.422C243.907 256.594 243.642 256.66 243.334 256.621V256.621C242.984 256.572 242.741 256.461 242.607 256.288V256.288L237.923 250.257C238.318 247.757 238.564 245.651 238.66 243.939V243.939C238.819 243.014 238.922 242.082 238.969 241.143 239.017 240.195 239.045 239.612 239.054 239.395V239.395C239.086 238.535 239.077 237.985 239.026 237.746V237.746C239.025 237.299 238.974 237.01 238.871 236.879V236.879C238.802 236.789 238.715 236.786 238.609 236.867V236.867L232.315 241.553C231.947 241.839 231.447 241.826 230.817 241.514V241.514C230.475 241.291 229.938 240.801 229.207 240.044V240.044C228.895 239.73 228.486 239.246 227.979 238.593V238.593C227.828 238.399 227.703 238.217 227.606 238.048V238.048C227.353 237.722 227.169 237.464 227.055 237.274V237.274C226.785 236.926 226.623 236.668 226.568 236.5V236.5L226.317 236.176 226.346 235.888C226.385 235.58 226.536 235.323 226.799 235.119V235.119C226.952 235 227.097 234.921 227.235 234.882V234.882L227.622 234.631C228.401 234.026 229.179 233.372 229.956 232.667V232.667C230.691 231.995 231.462 231.346 232.267 230.721V230.721C234.329 229.119 235.853 227.898 236.837 227.057V227.057L241.541 223.354C242.761 222.406 243.747 221.746 244.496 221.375V221.375C244.866 221.265 245.12 221.206 245.259 221.2V221.2C245.424 221.283 245.515 221.334 245.531 221.355V221.355L249.583 226.573C249.735 226.768 249.928 227.174 250.164 227.793V227.793C250.346 228.385 250.467 229.215 250.527 230.281V230.281C250.723 232.5 250.552 236.206 250.013 241.399V241.399C250.97 240.656 251.668 240.093 252.105 239.711V239.711L254.031 238.215 255.886 236.774C256.081 236.623 256.32 236.551 256.604 236.558 256.888 236.566 257.09 236.646 257.208 236.798V236.798L261.285 242.047 261.358 242.142C261.477 242.295 261.503 242.485 261.436 242.714V242.714C261.307 242.95 261.113 243.189 260.854 243.432V243.432C260.64 243.699 260.217 244.078 259.586 244.569V244.569Z" fill="#00ebff" data-fill-palette-color="primary"></path><path d="M148.173 31.004C147.292 31.1 146.658 31.156 146.271 31.172V31.172L144.83 31.33 143.429 31.484 141.75 31.668C141.525 31.692 141.299 31.677 141.072 31.622V31.622C140.791 31.565 140.541 31.549 140.322 31.573V31.573L139.949 31.654C139.669 31.604 139.517 31.47 139.493 31.252V31.252L135.181 18.524C134.033 14.903 133.003 11.587 132.089 8.577V8.577C131.944 8.479 131.783 8.135 131.604 7.545V7.545C131.541 7.216 131.472 6.711 131.397 6.029V6.029C131.358 5.671 131.386 5.37 131.479 5.125 131.579 4.873 131.751 4.733 131.996 4.706V4.706L132.573 4.643 133.526 4.539C133.725 4.577 134.069 4.57 134.559 4.516V4.516L136.422 4.352 136.749 4.316 138.518 4.122 138.771 4.134C138.8 4.158 138.828 4.168 138.854 4.165 138.881 4.162 138.894 4.161 138.894 4.161V4.161L138.943 4.236C138.969 4.233 139.004 4.216 139.047 4.184 139.084 4.154 139.129 4.135 139.182 4.129V4.129C139.342 4.058 139.448 4.02 139.501 4.014V4.014L139.63 4 140.002 3.999C140.303 3.993 140.894 3.942 141.775 3.845V3.845C142.053 3.868 142.37 3.86 142.728 3.821V3.821C142.894 4.057 143.087 4.469 143.305 5.055 143.524 5.641 143.753 6.296 143.994 7.02V7.02C144.098 7.424 144.332 8.273 144.695 9.567V9.567C144.82 9.969 144.973 10.479 145.154 11.095V11.095L145.548 12.39C145.551 12.416 145.569 12.461 145.603 12.524 145.637 12.594 145.66 12.682 145.672 12.788V12.788L145.882 13.6C145.965 13.812 146.059 14.147 146.163 14.604V14.604C146.231 14.738 146.29 14.905 146.339 15.108 146.394 15.31 146.443 15.479 146.485 15.615V15.615C146.526 15.751 146.567 15.877 146.607 15.993 146.647 16.116 146.675 16.247 146.69 16.386V16.386L146.81 16.745 146.878 16.909C146.887 16.988 146.92 17.052 146.979 17.099V17.099L147.006 17.347 147.059 17.09 147.037 16.891 147.058 16.718C147.049 16.639 147.066 16.513 147.107 16.341V16.341C147.086 16.149 147.097 15.883 147.14 15.543V15.543C147.175 15.371 147.196 15.195 147.203 15.013 147.216 14.831 147.227 14.655 147.236 14.487V14.487L147.282 13.446C147.324 13.274 147.349 13.104 147.357 12.935 147.365 12.767 147.367 12.656 147.361 12.603V12.603L147.356 12.191C147.696 7.958 147.97 5.26 148.177 4.098V4.098C148.186 3.936 148.216 3.775 148.265 3.616 148.321 3.455 148.424 3.327 148.575 3.23V3.23C148.601 3.167 148.686 3.114 148.829 3.071 148.978 3.028 149.095 2.989 149.178 2.953V2.953C149.744 2.803 150.15 2.715 150.395 2.688V2.688L151.091 2.612 152.283 2.481 153.729 2.373C153.984 2.372 154.273 2.353 154.598 2.318V2.318L154.727 2.304C154.75 2.274 154.768 2.249 154.779 2.228 154.791 2.213 154.797 2.206 154.797 2.206V2.206C154.909 2.193 154.982 2.215 155.015 2.272V2.272C155.068 2.266 155.102 2.269 155.116 2.281 155.131 2.293 155.139 2.299 155.139 2.299V2.299C155.638 2.271 156.216 2.221 156.872 2.149V2.149C157.153 2.145 157.442 2.127 157.74 2.094V2.094C157.985 2.067 158.127 2.078 158.166 2.128V2.128C158.193 2.125 158.231 2.107 158.281 2.075 158.331 2.042 158.386 2.023 158.446 2.016V2.016C158.493 1.958 158.626 1.916 158.844 1.892V1.892L159.093 1.865 159.589 1.811C160.026 1.763 160.291 1.787 160.382 1.885V1.885C160.691 2.688 160.983 3.699 161.257 4.915V4.915L161.475 5.806C161.872 7.345 162.252 8.637 162.614 9.683V9.683L162.748 10.171C162.898 10.738 162.98 11.087 162.994 11.22V11.22C163.051 11.495 163.166 11.928 163.338 12.519V12.519C163.466 13.142 163.584 13.572 163.69 13.808V13.808C163.724 14.113 163.788 14.454 163.883 14.832V14.832C163.925 14.969 163.966 15.068 164.006 15.131 164.04 15.194 164.058 15.239 164.061 15.265V15.265C164.077 15.404 164.104 15.529 164.142 15.638V15.638L164.209 15.882C164.247 15.737 164.278 15.65 164.301 15.621V15.621L164.26 15.243 164.261 14.791 164.306 13.74 164.371 12.406C164.358 12.045 164.379 11.597 164.435 11.062V11.062L164.437 9.986C164.449 9.844 164.456 9.729 164.46 9.641 164.464 9.561 164.465 9.507 164.462 9.48V9.48C164.544 8.694 164.59 8.106 164.601 7.716V7.716L164.675 6.833C164.836 4.757 164.997 3.322 165.157 2.527V2.527C165.193 2.054 165.29 1.655 165.448 1.329V1.329C165.614 1.311 165.791 1.278 165.98 1.23 166.17 1.183 166.36 1.148 166.552 1.127V1.127C166.771 1.103 167.013 1.05 167.279 0.967V0.967L167.358 0.958C167.444 0.949 167.49 0.971 167.496 1.024V1.024C167.496 1.024 167.498 1.037 167.5 1.063 167.503 1.09 167.518 1.102 167.545 1.099V1.099C167.65 1.087 167.732 1.065 167.789 1.032 167.839 1 167.877 0.982 167.903 0.979V0.979L167.934 0.895 170.16 0.651 170.448 0.62C170.753 0.586 171.013 0.544 171.228 0.494V0.494L172.252 0.381C172.775 0.324 173.129 0.255 173.315 0.174V0.174L174.259 0.071 174.875 0.003C175.093-0.021 175.279 0.086 175.433 0.324 175.585 0.555 175.68 0.837 175.716 1.168V1.168C175.616 1.541 175.546 2.061 175.505 2.729V2.729C175.512 3.037 175.538 3.396 175.583 3.806V3.806C175.149 8.157 174.648 12.056 174.081 15.503V15.503L172.496 27.632C172.257 27.712 172.127 27.81 172.106 27.926V27.926L172.128 28.125 171.716 28.13C171.497 28.154 171.333 28.185 171.224 28.224V28.224L170.741 28.317 168.685 28.542C167.612 28.66 166.812 28.734 166.286 28.765V28.765L163.941 29.023 161.925 29.244 160.733 29.375C160.458 29.378 160.072 29.407 159.576 29.461V29.461L159.173 29.546C158.886 29.497 158.73 29.363 158.706 29.144V29.144L154.465 15.865 153.232 29.745C153.148 30.196 152.735 30.463 151.993 30.544V30.544L150.056 30.757C149.701 30.822 149.073 30.905 148.173 31.004ZM239.263 54.604C237.043 52.878 235.429 51.606 234.42 50.787V50.787C233.441 50.026 232.708 49.439 232.219 49.025V49.025L229.633 46.963C229.412 46.791 229.284 46.548 229.25 46.234V46.234C229.206 45.888 229.252 45.628 229.387 45.455V45.455L234.087 39.412C236.617 39.176 238.725 38.891 240.411 38.557V38.557C241.347 38.483 242.28 38.352 243.211 38.164 244.142 37.977 244.712 37.863 244.92 37.822V37.822C245.766 37.636 246.298 37.489 246.518 37.38V37.38C246.959 37.268 247.231 37.146 247.334 37.015V37.015C247.399 36.931 247.377 36.846 247.266 36.76V36.76L241.162 31.797C240.793 31.511 240.683 31.024 240.829 30.336V30.336C240.961 29.949 241.304 29.308 241.857 28.413V28.413C242.089 28.027 242.458 27.509 242.965 26.857V26.857C243.117 26.662 243.262 26.497 243.402 26.36V26.36C243.656 26.034 243.86 25.793 244.016 25.636V25.636C244.29 25.283 244.5 25.058 244.644 24.959V24.959L244.896 24.635 245.19 24.599C245.499 24.56 245.784 24.643 246.047 24.848V24.848C246.2 24.966 246.312 25.087 246.385 25.211V25.211L246.717 25.533C247.501 26.142 248.335 26.736 249.219 27.314V27.314C250.052 27.86 250.87 28.447 251.675 29.072V29.072C253.742 30.68 255.307 31.859 256.369 32.609V32.609L261.135 36.265C262.355 37.214 263.24 38.008 263.79 38.647V38.647C263.988 38.978 264.105 39.208 264.14 39.337V39.337C264.106 39.521 264.081 39.624 264.064 39.645V39.645L259.997 44.876C259.845 45.07 259.497 45.361 258.952 45.747V45.747C258.422 46.07 257.646 46.39 256.622 46.708V46.708C254.511 47.446 250.871 48.198 245.701 48.963V48.963C246.658 49.708 247.374 50.247 247.848 50.582V50.582L249.773 52.079 251.634 53.527C251.834 53.683 251.966 53.899 252.029 54.176 252.092 54.453 252.064 54.668 251.946 54.82V54.82L247.853 60.082 247.779 60.177C247.661 60.33 247.482 60.402 247.244 60.394V60.394C246.984 60.326 246.702 60.196 246.397 60.001V60.001C246.085 59.86 245.613 59.543 244.982 59.053V59.053Z" fill="#00ebff" data-fill-palette-color="primary"></path><path d="M61.17 142.124C61.17 136.237 65.943 131.465 71.83 131.465 77.717 131.465 82.489 136.237 82.489 142.124 82.489 148.011 77.717 152.783 71.83 152.783 65.943 152.783 61.17 148.011 61.17 142.124ZM313.031 142.124C313.031 136.237 317.803 131.465 323.69 131.465 329.577 131.465 334.35 136.237 334.35 142.124 334.35 148.011 329.577 152.783 323.69 152.783 317.803 152.783 313.031 148.011 313.031 142.124Z" fill="#00ebff" data-fill-palette-color="primary"></path></svg></g></svg></g></svg></g></svg></g><defs></defs></svg><rect width="395.52" height="280" fill="none" stroke="none" visibility="hidden"></rect></g></svg></g></svg>